<mxfile host="app.diagrams.net" agent="Mozilla/5.0 (Windows NT 10.0; Win64; x64) AppleWebKit/537.36 (KHTML, like Gecko) Chrome/128.0.0.0 Safari/537.36" version="24.7.16">
  <diagram name="페이지-1" id="2n7N6EhF88uoxu0NYIik">
    <mxGraphModel dx="1674" dy="738" grid="1" gridSize="10" guides="1" tooltips="1" connect="1" arrows="1" fold="1" page="1" pageScale="1" pageWidth="827" pageHeight="1169" math="0" shadow="0">
      <root>
        <mxCell id="0" />
        <mxCell id="1" parent="0" />
        <mxCell id="XnqUc_jkuX38eM6Hs4lA-1" value="&lt;span style=&quot;font-size: 12px;&quot;&gt;노래 평점&lt;/span&gt;&lt;br&gt;&lt;div style=&quot;font-size: 12px;&quot;&gt;MUSICSCORE&lt;/div&gt;" style="shape=table;startSize=30;container=1;collapsible=1;childLayout=tableLayout;fixedRows=1;rowLines=0;fontStyle=1;align=center;resizeLast=1;html=1;fillColor=#dae8fc;strokeColor=#6c8ebf;whiteSpace=wrap;verticalAlign=middle;fontSize=11;" vertex="1" parent="1">
          <mxGeometry x="400" y="40" width="340" height="110" as="geometry" />
        </mxCell>
        <mxCell id="XnqUc_jkuX38eM6Hs4lA-2" value="" style="shape=tableRow;horizontal=0;startSize=0;swimlaneHead=0;swimlaneBody=0;fillColor=none;collapsible=0;dropTarget=0;points=[[0,0.5],[1,0.5]];portConstraint=eastwest;top=0;left=0;right=0;bottom=1;align=left;fontStyle=0;whiteSpace=wrap;html=1;verticalAlign=middle;" vertex="1" parent="XnqUc_jkuX38eM6Hs4lA-1">
          <mxGeometry y="30" width="340" height="20" as="geometry" />
        </mxCell>
        <mxCell id="XnqUc_jkuX38eM6Hs4lA-3" value="PK" style="shape=partialRectangle;connectable=0;fillColor=none;top=0;left=0;bottom=0;right=0;fontStyle=0;overflow=hidden;whiteSpace=wrap;html=1;align=center;verticalAlign=middle;fontSize=10;" vertex="1" parent="XnqUc_jkuX38eM6Hs4lA-2">
          <mxGeometry width="30" height="20" as="geometry">
            <mxRectangle width="30" height="20" as="alternateBounds" />
          </mxGeometry>
        </mxCell>
        <mxCell id="XnqUc_jkuX38eM6Hs4lA-4" value="&lt;b style=&quot;font-size: 10px;&quot;&gt;평점 ID&lt;span style=&quot;white-space: pre; font-size: 10px;&quot;&gt;&#x9;&lt;/span&gt;&lt;span style=&quot;white-space: pre; font-size: 10px;&quot;&gt;&#x9;&lt;/span&gt;MSNO&lt;span style=&quot;white-space: pre; font-size: 10px;&quot;&gt;&#x9;&lt;span style=&quot;white-space: pre; font-size: 10px;&quot;&gt;&#x9;&lt;/span&gt;&lt;/span&gt;NUMBER&lt;span style=&quot;white-space: pre; font-size: 10px;&quot;&gt;&#x9;&lt;/span&gt;NOT NULL&lt;/b&gt;" style="shape=partialRectangle;connectable=0;fillColor=none;top=0;left=0;bottom=0;right=0;align=left;spacingLeft=6;fontStyle=0;overflow=hidden;whiteSpace=wrap;html=1;verticalAlign=middle;fontSize=10;" vertex="1" parent="XnqUc_jkuX38eM6Hs4lA-2">
          <mxGeometry x="30" width="310" height="20" as="geometry">
            <mxRectangle width="310" height="20" as="alternateBounds" />
          </mxGeometry>
        </mxCell>
        <mxCell id="XnqUc_jkuX38eM6Hs4lA-5" value="" style="shape=tableRow;horizontal=0;startSize=0;swimlaneHead=0;swimlaneBody=0;fillColor=none;collapsible=0;dropTarget=0;points=[[0,0.5],[1,0.5]];portConstraint=eastwest;top=0;left=0;right=0;bottom=0;align=left;fontStyle=0;whiteSpace=wrap;html=1;verticalAlign=middle;fontSize=10;" vertex="1" parent="XnqUc_jkuX38eM6Hs4lA-1">
          <mxGeometry y="50" width="340" height="20" as="geometry" />
        </mxCell>
        <mxCell id="XnqUc_jkuX38eM6Hs4lA-6" value="" style="shape=partialRectangle;connectable=0;fillColor=none;top=0;left=0;bottom=0;right=0;editable=1;overflow=hidden;whiteSpace=wrap;html=1;align=left;fontStyle=0;verticalAlign=middle;fontSize=10;" vertex="1" parent="XnqUc_jkuX38eM6Hs4lA-5">
          <mxGeometry width="30" height="20" as="geometry">
            <mxRectangle width="30" height="20" as="alternateBounds" />
          </mxGeometry>
        </mxCell>
        <mxCell id="XnqUc_jkuX38eM6Hs4lA-7" value="유저 ID&lt;span style=&quot;white-space: pre; font-size: 10px;&quot;&gt;&#x9;&lt;/span&gt;&lt;span style=&quot;white-space: pre; font-size: 10px;&quot;&gt;&#x9;&lt;/span&gt;ID&lt;span style=&quot;white-space: pre; font-size: 10px;&quot;&gt;&#x9;&lt;span style=&quot;white-space: pre;&quot;&gt;&#x9;&lt;/span&gt;&lt;span style=&quot;white-space: pre; font-size: 10px;&quot;&gt;&#x9;&lt;/span&gt;&lt;/span&gt;VARHCAR2&lt;span style=&quot;white-space: pre; font-size: 10px;&quot;&gt;&#x9;&lt;/span&gt;NOT NULL" style="shape=partialRectangle;connectable=0;fillColor=none;top=0;left=0;bottom=0;right=0;align=left;spacingLeft=6;overflow=hidden;whiteSpace=wrap;html=1;fontStyle=0;verticalAlign=middle;fontSize=10;" vertex="1" parent="XnqUc_jkuX38eM6Hs4lA-5">
          <mxGeometry x="30" width="310" height="20" as="geometry">
            <mxRectangle width="310" height="20" as="alternateBounds" />
          </mxGeometry>
        </mxCell>
        <mxCell id="XnqUc_jkuX38eM6Hs4lA-8" value="" style="shape=tableRow;horizontal=0;startSize=0;swimlaneHead=0;swimlaneBody=0;fillColor=none;collapsible=0;dropTarget=0;points=[[0,0.5],[1,0.5]];portConstraint=eastwest;top=0;left=0;right=0;bottom=0;align=left;fontStyle=0;whiteSpace=wrap;html=1;verticalAlign=middle;fontSize=10;" vertex="1" parent="XnqUc_jkuX38eM6Hs4lA-1">
          <mxGeometry y="70" width="340" height="20" as="geometry" />
        </mxCell>
        <mxCell id="XnqUc_jkuX38eM6Hs4lA-9" value="" style="shape=partialRectangle;connectable=0;fillColor=none;top=0;left=0;bottom=0;right=0;editable=1;overflow=hidden;whiteSpace=wrap;html=1;align=left;fontStyle=0;verticalAlign=middle;fontSize=10;" vertex="1" parent="XnqUc_jkuX38eM6Hs4lA-8">
          <mxGeometry width="30" height="20" as="geometry">
            <mxRectangle width="30" height="20" as="alternateBounds" />
          </mxGeometry>
        </mxCell>
        <mxCell id="XnqUc_jkuX38eM6Hs4lA-10" value="노래 ID&lt;span style=&quot;white-space: pre; font-size: 10px;&quot;&gt;&#x9;&lt;/span&gt;&lt;span style=&quot;white-space: pre; font-size: 10px;&quot;&gt;&#x9;&lt;/span&gt;MNO&lt;span style=&quot;white-space: pre; font-size: 10px;&quot;&gt;&#x9;&lt;span style=&quot;white-space: pre; font-size: 10px;&quot;&gt;&#x9;&lt;/span&gt;&lt;/span&gt;NUMBER&lt;span style=&quot;white-space: pre; font-size: 10px;&quot;&gt;&#x9;&lt;/span&gt;NOT NULL" style="shape=partialRectangle;connectable=0;fillColor=none;top=0;left=0;bottom=0;right=0;align=left;spacingLeft=6;overflow=hidden;whiteSpace=wrap;html=1;fontStyle=0;verticalAlign=middle;fontSize=10;" vertex="1" parent="XnqUc_jkuX38eM6Hs4lA-8">
          <mxGeometry x="30" width="310" height="20" as="geometry">
            <mxRectangle width="310" height="20" as="alternateBounds" />
          </mxGeometry>
        </mxCell>
        <mxCell id="XnqUc_jkuX38eM6Hs4lA-11" style="shape=tableRow;horizontal=0;startSize=0;swimlaneHead=0;swimlaneBody=0;fillColor=none;collapsible=0;dropTarget=0;points=[[0,0.5],[1,0.5]];portConstraint=eastwest;top=0;left=0;right=0;bottom=0;align=left;fontStyle=0;whiteSpace=wrap;html=1;verticalAlign=middle;fontSize=10;" vertex="1" parent="XnqUc_jkuX38eM6Hs4lA-1">
          <mxGeometry y="90" width="340" height="20" as="geometry" />
        </mxCell>
        <mxCell id="XnqUc_jkuX38eM6Hs4lA-12" style="shape=partialRectangle;connectable=0;fillColor=none;top=0;left=0;bottom=0;right=0;editable=1;overflow=hidden;whiteSpace=wrap;html=1;align=left;fontStyle=0;verticalAlign=middle;fontSize=10;" vertex="1" parent="XnqUc_jkuX38eM6Hs4lA-11">
          <mxGeometry width="30" height="20" as="geometry">
            <mxRectangle width="30" height="20" as="alternateBounds" />
          </mxGeometry>
        </mxCell>
        <mxCell id="XnqUc_jkuX38eM6Hs4lA-13" value="점수&lt;span style=&quot;white-space: pre;&quot;&gt;&#x9;&lt;/span&gt;&lt;span style=&quot;white-space: pre;&quot;&gt;&#x9;&lt;/span&gt;&lt;span style=&quot;white-space: pre;&quot;&gt;&#x9;&lt;/span&gt;SCORE&lt;span style=&quot;white-space: pre;&quot;&gt;&#x9;&lt;/span&gt;&lt;span style=&quot;white-space: pre;&quot;&gt;&#x9;&lt;/span&gt;NUMBER&lt;span style=&quot;white-space: pre;&quot;&gt;&#x9;&lt;/span&gt;NOT NULL" style="shape=partialRectangle;connectable=0;fillColor=none;top=0;left=0;bottom=0;right=0;align=left;spacingLeft=6;overflow=hidden;whiteSpace=wrap;html=1;fontStyle=0;verticalAlign=middle;fontSize=10;" vertex="1" parent="XnqUc_jkuX38eM6Hs4lA-11">
          <mxGeometry x="30" width="310" height="20" as="geometry">
            <mxRectangle width="310" height="20" as="alternateBounds" />
          </mxGeometry>
        </mxCell>
      </root>
    </mxGraphModel>
  </diagram>
</mxfile>
